<?xml version="1.0" encoding="iso-8859-1"?>
<!-- Generator: Adobe Illustrator 19.0.0, SVG Export Plug-In . SVG Version: 6.00 Build 0)  -->
<svg version="1.1" id="Capa_1" xmlns="http://www.w3.org/2000/svg" xmlns:xlink="http://www.w3.org/1999/xlink" x="0px" y="0px"
	 viewBox="0 0 512 512" style="enable-background:new 0 0 512 512;" xml:space="preserve">
<g>
	<g>
		<path d="M477.191,318.08l-57.66-36.13c-6.033-3.294-9.933-9.6-9.933-16.077V242.5c6.852-7.057,24.422-27.11,31.479-53.675
			c7.066-5.803,11.187-14.387,11.187-23.586v-29.483c0-6.904-3.012-13.858-8.533-19.883l-0.017-39.543
			C443.672,75.571,438.518,0,349.865,0c-37.75,0-60.008,14.057-72.887,28.348C258.724,12.172,232.852,0.303,196.195,0
			C79.596,0.964,72.18,119.202,72.103,120.67C70.61,198.34,18.497,274.398,2.565,295.859c-3.977,5.359-3.191,12.911,1.775,17.186
			c20.156,17.374,61.645,19.652,63.821,19.755h68.258c0.196,0.947,0.196,2.304-0.213,3.14l-0.99,2.099
			c-1.775,3.789-3.772,8.055-5.82,9.335l-55.535,21.043c-29.303,11.119-51.038,35.977-58.146,66.509L0.227,501.53
			c-0.597,2.543,0.009,5.205,1.621,7.245S5.936,512,8.53,512h375.467c2.603,0,5.069-1.186,6.682-3.226
			c1.621-2.039,2.219-4.702,1.63-7.245l-15.497-66.603c-2.097-9.007-5.475-17.515-9.936-25.327h136.589
			c4.719,0,8.533-3.823,8.533-8.533v-23.868C511.998,352.435,498.49,329.677,477.191,318.08z M19.273,494.933l13.056-56.141
			c5.82-24.977,23.612-45.32,47.582-54.417l56.073-21.248c0.265-0.102,0.529-0.222,0.785-0.35
			c7.441-3.712,10.871-11.025,13.892-17.485l0.939-1.971c3.012-6.272,2.586-14.703-1.05-20.48c-2.842-4.523-7.364-7.108-12.39-7.108
			l-69.564,0.009c-9.549-0.495-35.593-3.806-49.809-13.158c19.063-26.351,68.864-102.622,70.374-181.316
			c0.222-4.215,6.46-103.364,107.034-104.201c35.157,0.29,58.795,12.647,74.692,28.745c0.492,0.703,1.099,1.34,1.815,1.886
			c27.799,29.749,30.51,70.797,30.646,73.305c1.536,78.967,51.319,155.221,70.391,181.589
			c-14.199,9.336-40.218,12.655-49.374,13.141h-69.99c-5.009,0-9.506,2.569-12.339,7.057c-3.652,5.786-4.122,14.225-1.118,20.506
			l0.887,1.894c3.046,6.494,6.485,13.867,13.961,17.587c0.247,0.128,0.512,0.247,0.785,0.35l56.064,21.248
			c12.003,4.553,22.454,11.925,30.63,21.285c0.409,0.638,0.901,1.215,1.461,1.722c7.402,8.995,12.765,19.693,15.491,31.41
			l13.056,56.141H19.273z M494.932,392.533H354.389c-9.721-10.537-21.874-18.861-35.724-24.115l-55.535-21.052
			c-2.065-1.28-4.079-5.598-5.871-9.412l-0.947-1.997c-0.384-0.819-0.367-2.193-0.162-3.157l68.651-0.008
			c1.758-0.094,43.315-2.381,63.454-19.806c4.907-4.258,5.683-11.759,1.741-17.084c-15.94-21.453-68.07-97.51-69.589-175.505
			c-0.042-0.729-2.82-45.058-31.519-79.714c13.467-15.658,33.92-23.616,60.978-23.616c72.226,0,76.655,57.771,76.8,59.733v42.624
			c0,2.406,1.024,4.71,2.807,6.323c3.644,3.294,5.726,6.938,5.726,10.01v29.483c0,4.582-2.347,8.832-6.281,11.375
			c-1.869,1.203-3.191,3.098-3.695,5.256c-6.647,28.988-29.705,50.577-29.943,50.79c-1.749,1.613-2.748,3.891-2.748,6.272v26.94
			c0,12.826,7.219,24.73,18.381,30.797l57.66,36.13c16.256,8.866,26.359,25.882,26.359,44.399V392.533z"/>
	</g>
</g>
<g>
</g>
<g>
</g>
<g>
</g>
<g>
</g>
<g>
</g>
<g>
</g>
<g>
</g>
<g>
</g>
<g>
</g>
<g>
</g>
<g>
</g>
<g>
</g>
<g>
</g>
<g>
</g>
<g>
</g>
</svg>
